<?xml version="1.0" encoding="utf-8"?>
<!-- Generator: Adobe Illustrator 23.0.3, SVG Export Plug-In . SVG Version: 6.00 Build 0)  -->
<svg version="1.1" id="Layer_1" xmlns="http://www.w3.org/2000/svg" xmlns:xlink="http://www.w3.org/1999/xlink" x="0px" y="0px"
	 viewBox="0 0 32 32" style="enable-background:new 0 0 32 32;" xml:space="preserve">
<style type="text/css">
	.st0{fill:none;stroke:#3B82F6;stroke-width:2;stroke-miterlimit:10;}
</style>
<path class="st0" d="M21.5,19.4c1.2,4.9-1.9,9.8-6.7,10.9c-0.7,0.2-1.4,0.2-2.1,0.2v-7.2 M21.5,19.4c5.9-4.3,9.3-11.1,9.3-18.3
	c-7.2,0-14,3.5-18.3,9.3 M21.5,19.4c-2.6,1.9-5.6,3.2-8.8,3.9 M12.5,10.4c-4.9-1.2-9.8,1.9-10.9,6.7c-0.2,0.7-0.2,1.4-0.2,2.1h7.2
	 M12.5,10.4c-1.9,2.6-3.2,5.6-3.9,8.8 M12.7,23.3c-0.2,0-0.3,0.1-0.5,0.1c-1.4-1.1-2.6-2.3-3.7-3.7c0-0.2,0.1-0.3,0.1-0.5 M5.2,22.9
	c-2,1.5-3,4-2.7,6.5c2.5,0.4,5-0.6,6.5-2.7 M22.9,11.3c0,1.3-1,2.3-2.3,2.3c-1.3,0-2.3-1-2.3-2.3s1-2.3,2.3-2.3
	C21.9,9.1,22.9,10.1,22.9,11.3z"/>
</svg>
